<svg viewBox="0 0 64 64" xmlns="http://www.w3.org/2000/svg" aria-hidden="true">
  <circle cx="32" cy="32" r="30" fill="#11100c"/>
  <circle cx="32" cy="32" r="29" fill="none" stroke="#ff5a1f" stroke-width="0.75" opacity="0.55"/>
  <path d="M32 14 L36 14 L37 19 L41 21 L45 18 L47 21 L44 25 L46 29 L51 30 L51 34 L46 35 L44 39 L47 43 L45 46 L41 43 L37 45 L36 50 L32 50 L28 50 L27 45 L23 43 L19 46 L17 43 L20 39 L18 35 L13 34 L13 30 L18 29 L20 25 L17 21 L19 18 L23 21 L27 19 L28 14 Z"
        fill="#f5f1e8"/>
  <circle cx="32" cy="32" r="7" fill="#11100c"/>
  <circle cx="32" cy="32" r="3.5" fill="#ffd35a"/>
  <circle cx="32" cy="56.5" r="1.6" fill="#ffd35a"/>
</svg>
